<svg width="86" height="78" xmlns="http://www.w3.org/2000/svg" xmlns:xlink="http://www.w3.org/1999/xlink" style="user-select: auto;">
 <defs style="user-select: auto;">
  <path style="user-select: auto;" id="b" d="m42.67,1.67l34.965,31.352a4,4 0 0 1 0,5.956l-34.965,31.352a4,4 0 0 1 -5.34,0l-34.965,-31.352a4,4 0 0 1 0,-5.956l34.965,-31.352a4,4 0 0 1 5.34,0z"/>
  <filter style="user-select: auto;" id="a" filterUnits="objectBoundingBox" height="119.4%" width="117.5%" y="-6.9%" x="-8.8%">
   <feGaussianBlur style="user-select: auto;" result="shadowBlurOuter1" in="shadowOffsetOuter1" stdDeviation="2"/>
  </filter>
 </defs>
 <g>
  <title>Layer 1</title>
  <g style="user-select: auto;" id="svg_1" fill-rule="evenodd" fill="none">
   <g style="user-select: auto;" id="svg_2">
    <use style="user-select: auto;" id="svg_3" x="3" y="3" xlink:href="#b" filter="url(#a)" fill="#000"/>
    <use style="user-select: auto;" id="svg_4" x="3" y="3" xlink:href="#b" fill="#E6FFFB" fill-opacity="0.92"/>
    <path style="user-select: auto;" id="svg_5" d="m45.337,5.042a3.5,3.5 0 0 0 -4.674,0l-34.965,31.352a3.5,3.5 0 0 0 0,5.212l34.965,31.352a3.5,3.5 0 0 0 4.674,0l34.965,-31.352a3.5,3.5 0 0 0 0,-5.212l-34.965,-31.352z" stroke="#5CDBD3"/>
   </g>
   <text style="user-select: auto;" id="svg_6" x="3" y="3" fill-opacity="0.65" fill="#000" font-size="12" font-family="PingFangSC-Regular, PingFang SC">
    <tspan style="user-select: auto;" id="svg_7" y="44" x="21">Choice</tspan>
   </text>
  </g>
 </g>
</svg>